<svg viewBox="0 0 44.3438 45.2222" xmlns="http://www.w3.org/2000/svg"
   xmlns:xlink="http://www.w3.org/1999/xlink" width="44.343750" height="45.222168" fill="none">
   <rect id="telegram" width="44.343750" height="45.222221" x="0.000000" y="0.000000"
      fill="rgb(255,255,255)" fill-opacity="0" />
   <path id="Vector"
      d="M43.659 4.4923C43.1174 3.81675 42.3061 3.44482 41.3744 3.44482C40.8679 3.44482 40.3313 3.5535 39.7799 3.76845L2.24372 18.381C0.251716 19.1563 -0.0165689 20.3197 0.000685194 20.9441C0.0179393 21.5686 0.350504 22.7148 2.38243 23.3741C2.39461 23.3779 2.40679 23.3817 2.41897 23.3851L10.205 25.6574L14.4157 37.9366C14.9898 39.6107 16.2784 40.6505 17.7792 40.6505C18.7255 40.6505 19.6562 40.2462 20.4708 39.4816L25.2868 34.9595L32.272 40.6954C32.2726 40.6961 32.2737 40.6964 32.2743 40.6971L32.3406 40.7516C32.3467 40.7565 32.3532 40.7616 32.3593 40.7665C33.1357 41.3806 33.9832 41.7049 34.811 41.7053L34.8114 41.7053C36.4289 41.7053 37.7168 40.4842 38.092 38.5949L44.2423 7.62472C44.4892 6.38162 44.2822 5.26928 43.659 4.4923ZM12.8097 25.2258L27.8312 17.3998L18.4778 27.5354C18.3246 27.7013 18.216 27.9045 18.1625 28.1257L16.3589 35.576L12.8097 25.2258ZM18.7106 37.5323C18.6483 37.5906 18.5857 37.6427 18.5231 37.6906L20.1965 30.7792L23.2403 33.2789L18.7106 37.5323ZM41.6958 7.09857L35.5455 38.0691C35.4863 38.3655 35.2972 39.0552 34.811 39.0552C34.5708 39.0552 34.269 38.9217 33.9602 38.6791L26.0449 32.1797C26.0439 32.1786 26.0426 32.1776 26.0412 32.1769L21.3315 28.3092L34.8577 13.6518C35.2908 13.1826 35.33 12.4639 34.9508 11.9485C34.5712 11.433 33.8834 11.2709 33.3207 11.5641L11.0738 23.1547L3.18187 20.852L40.7065 6.24396C41.0235 6.12044 41.2448 6.09456 41.3744 6.09456C41.4539 6.09456 41.5953 6.10422 41.6477 6.17012C41.7167 6.25603 41.8047 6.54895 41.6958 7.09857Z"
      fill="rgb(35,82,222)" fill-rule="nonzero" />
</svg>